<svg width="42" height="38" viewBox="0 0 42 38" fill="none" xmlns="http://www.w3.org/2000/svg">
<path d="M34.3049 12.2479L22.0068 23.199C21.7385 23.4392 21.3762 23.5739 20.9988 23.5739C20.6213 23.5739 20.2591 23.4392 19.9908 23.199L7.69004 12.2503C7.41939 12.0114 7.05624 11.8776 6.6781 11.8776C6.29997 11.8776 5.93681 12.0114 5.66617 12.2503C5.53321 12.3676 5.42755 12.5077 5.35541 12.6625C5.28326 12.8173 5.24609 12.9836 5.24609 13.1516C5.24609 13.3196 5.28326 13.4859 5.35541 13.6407C5.42755 13.7955 5.53321 13.9356 5.66617 14.0529L17.9617 25.0017C18.7715 25.7211 19.8612 26.1242 20.9962 26.1242C22.1312 26.1242 23.2208 25.7211 24.0307 25.0017L36.3262 14.0529C36.4595 13.9356 36.5655 13.7953 36.6379 13.6403C36.7103 13.4853 36.7476 13.3187 36.7476 13.1504C36.7476 12.9821 36.7103 12.8156 36.6379 12.6605C36.5655 12.5055 36.4595 12.3652 36.3262 12.2479C36.0555 12.009 35.6924 11.8752 35.3142 11.8752C34.9361 11.8752 34.5729 12.009 34.3023 12.2479" fill="url(#paint0_linear_1374_1095)"/>
<defs>
<linearGradient id="paint0_linear_1374_1095" x1="20.9968" y1="11.8752" x2="20.9968" y2="26.1242" gradientUnits="userSpaceOnUse">
<stop stop-color="#035E22"/>
<stop offset="1" stop-color="#58A773"/>
</linearGradient>
</defs>
</svg>
