<svg width="31" height="33" viewBox="0 0 31 33" fill="none" xmlns="http://www.w3.org/2000/svg">
<path d="M10.6398 0.903319C7.44106 2.06065 4.68249 4.25731 2.76925 7.17063C0.856014 10.084 -0.111036 13.5604 0.0101454 17.0893C0.131327 20.6182 1.33435 24.0136 3.44252 26.7767C5.55068 29.5398 8.45286 31.525 11.7228 32.4407C14.3738 33.1542 17.1512 33.1855 19.8164 32.532C22.2308 31.9664 24.4629 30.7566 26.2943 29.0209C28.2003 27.1593 29.5838 24.7911 30.2961 22.1709C31.0702 19.3215 31.208 16.3249 30.6988 13.4113H15.8121V19.8519H24.4335C24.2611 20.8791 23.8919 21.8595 23.3478 22.7344C22.8038 23.6093 22.0961 24.3608 21.267 24.9438C20.2143 25.6701 19.0275 26.1587 17.783 26.3785C16.5348 26.6205 15.2545 26.6205 14.0063 26.3785C12.7412 26.1057 11.5444 25.5611 10.4922 24.7794C8.80184 23.5314 7.53259 21.7585 6.8656 19.7136C6.18734 17.6304 6.18734 15.3719 6.8656 13.2887C7.34038 11.8285 8.12525 10.499 9.16163 9.39938C10.3476 8.11792 11.8492 7.20192 13.5015 6.75189C15.1538 6.30187 16.893 6.33519 18.5283 6.84821C19.8058 7.25721 20.974 7.97182 21.9398 8.93506C22.9119 7.92642 23.8824 6.91517 24.8511 5.90131C25.3514 5.35612 25.8966 4.83702 26.3893 4.27879C24.9151 2.84793 23.1846 1.73455 21.2971 1.00244C17.8598 -0.299251 14.0988 -0.334233 10.6398 0.903319Z" fill="white"/>
<path d="M10.7521 0.899167C14.198 -0.331806 17.9452 -0.297949 21.3701 0.995105C23.2511 1.72777 24.9744 2.83981 26.4412 4.26738C25.9428 4.82226 25.417 5.34085 24.9086 5.88017C23.9418 6.8845 22.9757 7.88537 22.0105 8.88278C21.0483 7.92531 19.8844 7.21499 18.6116 6.80844C16.9828 6.2967 15.25 6.26167 13.6034 6.70717C11.9567 7.15267 10.4598 8.0615 9.27685 9.33395C8.24429 10.427 7.4623 11.7485 6.98927 13.2L1.82353 9.03836C3.67255 5.22303 6.87402 2.30459 10.7521 0.899167Z" fill="#E33629"/>
<path d="M0.32925 13.3876C0.625108 12.0126 1.11629 10.6811 1.78967 9.42857L7.29412 13.4349C6.57404 15.4234 6.57404 17.5791 7.29412 19.5676C5.46019 20.8956 3.62537 22.2302 1.78967 23.5714C0.103949 20.4249 -0.410166 16.8399 0.32925 13.3876Z" fill="#F8BD00"/>
<path d="M15.5011 13.2H30.6926C31.2122 16.0158 31.0717 18.9118 30.2817 21.6655C29.5548 24.1978 28.143 26.4866 26.1979 28.2857C24.4904 26.9697 22.7753 25.6639 21.0678 24.3479C21.9143 23.7839 22.6369 23.0569 23.1921 22.2104C23.7473 21.364 24.1238 20.4155 24.299 19.4218H15.5011C15.4986 17.3496 15.5011 15.2748 15.5011 13.2Z" fill="#587DBD"/>
<path d="M1.82353 23.6734C3.55205 22.3887 5.27973 21.0976 7.00659 19.8C7.67468 21.689 8.94531 23.3263 10.637 24.478C11.6921 25.1964 12.891 25.6952 14.1574 25.9425C15.4051 26.1661 16.685 26.1661 17.9328 25.9425C19.1769 25.7397 20.3632 25.2884 21.4156 24.6177C23.0883 25.8751 24.7685 27.1229 26.4412 28.3803C24.6107 29.9839 22.3793 31.102 19.9655 31.625C17.3012 32.2284 14.5247 32.1995 11.8746 31.5407C9.77864 31.0015 7.82086 30.0511 6.12399 28.7488C4.32795 27.3751 2.86103 25.6438 1.82353 23.6734Z" fill="#319F43"/>
</svg>
