<svg width="42" height="44" viewBox="0 0 42 44" fill="none" xmlns="http://www.w3.org/2000/svg">
<path d="M0 37.0554V34.7057H4.76809V16.084C4.76809 13.0137 5.98841 10.3138 8.42905 7.98443C10.8736 5.65662 13.9687 4.20605 17.7143 3.63271V2.34975C17.7143 1.69652 18.0007 1.14198 18.5734 0.686133C19.1462 0.230283 19.842 0.00157449 20.6608 7.99231e-06C21.4796 -0.0015585 22.1773 0.22715 22.754 0.686133C23.3307 1.14512 23.619 1.69965 23.619 2.34975V3.63271C27.3666 4.20605 30.4607 5.6574 32.9013 7.98678C35.342 10.3162 36.5623 13.016 36.5623 16.0863V34.7033H41.3333V37.0531L0 37.0554ZM20.6578 43.2C19.343 43.2 18.2211 42.828 17.2921 42.0839C16.3631 41.3398 15.8986 40.4469 15.8986 39.4052H25.4348C25.4348 40.4547 24.9673 41.35 24.0324 42.0909C23.0955 42.8303 21.9706 43.2 20.6578 43.2Z" fill="#025193"/>
</svg>
