<svg width="364" height="364" viewBox="0 0 364 364" fill="none" xmlns="http://www.w3.org/2000/svg">
<rect x="0.5" y="0.5" width="363" height="363" stroke="black" stroke-dasharray="9 9"/>
<path d="M182.429 194.571H191.571V151.794L210.771 170.928L217.245 164.432L187 134.292L156.755 164.432L163.283 170.873L182.429 151.794V194.571ZM123 224V60H209.857L251 101V224H123ZM205.286 105.556V69.1111H132.143V214.889H241.857V105.556H205.286Z" fill="black"/>
<path d="M50.6657 279H44.2204V260.818H50.719C52.5478 260.818 54.1221 261.182 55.442 261.91C56.7618 262.632 57.7769 263.671 58.4871 265.026C59.2032 266.382 59.5613 268.003 59.5613 269.891C59.5613 271.785 59.2032 273.413 58.4871 274.774C57.7769 276.135 56.7559 277.18 55.4242 277.908C54.0985 278.636 52.5123 279 50.6657 279ZM48.0645 275.706H50.5059C51.6423 275.706 52.5981 275.505 53.3734 275.103C54.1547 274.694 54.7406 274.064 55.1313 273.212C55.5278 272.353 55.7261 271.247 55.7261 269.891C55.7261 268.548 55.5278 267.45 55.1313 266.598C54.7406 265.745 54.1577 265.118 53.3823 264.716C52.607 264.313 51.6511 264.112 50.5148 264.112H48.0645V275.706ZM62.4089 279V260.818H69.5822C70.9553 260.818 72.1271 261.064 73.0978 261.555C74.0744 262.04 74.8171 262.73 75.3261 263.624C75.841 264.511 76.0985 265.556 76.0985 266.757C76.0985 267.965 75.8381 269.004 75.3173 269.874C74.7964 270.738 74.0418 271.401 73.0534 271.862C72.0709 272.324 70.8813 272.555 69.4845 272.555H64.6816V269.465H68.8631C69.597 269.465 70.2066 269.365 70.6919 269.163C71.1772 268.962 71.5382 268.66 71.775 268.258C72.0177 267.855 72.139 267.355 72.139 266.757C72.139 266.154 72.0177 265.645 71.775 265.23C71.5382 264.816 71.1743 264.502 70.683 264.289C70.1977 264.07 69.5851 263.961 68.8453 263.961H66.253V279H62.4089ZM72.2278 270.726L76.7466 279H72.503L68.0818 270.726H72.2278ZM81.949 279H77.8297L84.1063 260.818H89.0601L95.3279 279H91.2086L86.6543 264.973H86.5122L81.949 279ZM81.6915 271.853H91.4217V274.854H81.6915V271.853ZM108.718 266.695C108.594 266.263 108.419 265.882 108.194 265.55C107.969 265.213 107.694 264.929 107.368 264.698C107.049 264.461 106.682 264.281 106.268 264.156C105.859 264.032 105.406 263.97 104.909 263.97C103.98 263.97 103.163 264.201 102.459 264.662C101.761 265.124 101.216 265.796 100.826 266.678C100.435 267.554 100.24 268.625 100.24 269.891C100.24 271.158 100.432 272.235 100.817 273.123C101.201 274.011 101.746 274.688 102.45 275.156C103.154 275.618 103.986 275.848 104.945 275.848C105.815 275.848 106.558 275.694 107.173 275.387C107.795 275.073 108.268 274.632 108.594 274.064C108.925 273.496 109.091 272.824 109.091 272.049L109.872 272.164H105.185V269.27H112.793V271.56C112.793 273.158 112.455 274.531 111.781 275.68C111.106 276.822 110.177 277.704 108.993 278.325C107.809 278.941 106.454 279.249 104.927 279.249C103.223 279.249 101.725 278.873 100.435 278.121C99.1446 277.364 98.1385 276.289 97.4164 274.898C96.7003 273.502 96.3422 271.844 96.3422 269.927C96.3422 268.453 96.5553 267.139 96.9814 265.985C97.4135 264.825 98.0171 263.843 98.7925 263.038C99.5678 262.233 100.47 261.62 101.5 261.2C102.53 260.78 103.646 260.57 104.847 260.57C105.877 260.57 106.836 260.721 107.724 261.022C108.611 261.318 109.399 261.739 110.085 262.283C110.778 262.828 111.343 263.476 111.781 264.227C112.219 264.973 112.5 265.796 112.624 266.695H108.718ZM124.6 279H120.481L126.758 260.818H131.712L137.979 279H133.86L129.306 264.973H129.164L124.6 279ZM124.343 271.853H134.073V274.854H124.343V271.853ZM155.375 260.818V279H152.055L144.145 267.556H144.012V279H140.168V260.818H143.541L151.389 272.253H151.549V260.818H155.375ZM164.997 279H158.551V260.818H165.05C166.879 260.818 168.453 261.182 169.773 261.91C171.093 262.632 172.108 263.671 172.818 265.026C173.534 266.382 173.892 268.003 173.892 269.891C173.892 271.785 173.534 273.413 172.818 274.774C172.108 276.135 171.087 277.18 169.755 277.908C168.43 278.636 166.843 279 164.997 279ZM162.396 275.706H164.837C165.973 275.706 166.929 275.505 167.705 275.103C168.486 274.694 169.072 274.064 169.462 273.212C169.859 272.353 170.057 271.247 170.057 269.891C170.057 268.548 169.859 267.45 169.462 266.598C169.072 265.745 168.489 265.118 167.713 264.716C166.938 264.313 165.982 264.112 164.846 264.112H162.396V275.706ZM188.971 279H182.526V260.818H189.025C190.853 260.818 192.428 261.182 193.748 261.91C195.067 262.632 196.083 263.671 196.793 265.026C197.509 266.382 197.867 268.003 197.867 269.891C197.867 271.785 197.509 273.413 196.793 274.774C196.083 276.135 195.062 277.18 193.73 277.908C192.404 278.636 190.818 279 188.971 279ZM186.37 275.706H188.812C189.948 275.706 190.904 275.505 191.679 275.103C192.46 274.694 193.046 274.064 193.437 273.212C193.833 272.353 194.032 271.247 194.032 269.891C194.032 268.548 193.833 267.45 193.437 266.598C193.046 265.745 192.463 265.118 191.688 264.716C190.913 264.313 189.957 264.112 188.82 264.112H186.37V275.706ZM200.715 279V260.818H207.888C209.261 260.818 210.433 261.064 211.403 261.555C212.38 262.04 213.123 262.73 213.632 263.624C214.147 264.511 214.404 265.556 214.404 266.757C214.404 267.965 214.144 269.004 213.623 269.874C213.102 270.738 212.347 271.401 211.359 271.862C210.377 272.324 209.187 272.555 207.79 272.555H202.987V269.465H207.169C207.903 269.465 208.512 269.365 208.998 269.163C209.483 268.962 209.844 268.66 210.081 268.258C210.323 267.855 210.445 267.355 210.445 266.757C210.445 266.154 210.323 265.645 210.081 265.23C209.844 264.816 209.48 264.502 208.989 264.289C208.503 264.07 207.891 263.961 207.151 263.961H204.559V279H200.715ZM210.533 270.726L215.052 279H210.809L206.387 270.726H210.533ZM233.829 269.909C233.829 271.892 233.453 273.579 232.701 274.969C231.956 276.36 230.938 277.423 229.647 278.157C228.363 278.885 226.919 279.249 225.315 279.249C223.699 279.249 222.249 278.882 220.965 278.148C219.681 277.414 218.666 276.351 217.92 274.961C217.174 273.57 216.801 271.886 216.801 269.909C216.801 267.926 217.174 266.24 217.92 264.849C218.666 263.458 219.681 262.398 220.965 261.67C222.249 260.937 223.699 260.57 225.315 260.57C226.919 260.57 228.363 260.937 229.647 261.67C230.938 262.398 231.956 263.458 232.701 264.849C233.453 266.24 233.829 267.926 233.829 269.909ZM229.932 269.909C229.932 268.625 229.739 267.542 229.354 266.66C228.976 265.778 228.44 265.109 227.748 264.653C227.055 264.198 226.244 263.97 225.315 263.97C224.386 263.97 223.575 264.198 222.883 264.653C222.19 265.109 221.651 265.778 221.267 266.66C220.888 267.542 220.699 268.625 220.699 269.909C220.699 271.193 220.888 272.277 221.267 273.158C221.651 274.04 222.19 274.709 222.883 275.165C223.575 275.621 224.386 275.848 225.315 275.848C226.244 275.848 227.055 275.621 227.748 275.165C228.44 274.709 228.976 274.04 229.354 273.158C229.739 272.277 229.932 271.193 229.932 269.909ZM236.676 279V260.818H243.85C245.229 260.818 246.404 261.082 247.374 261.608C248.345 262.129 249.085 262.854 249.594 263.783C250.109 264.707 250.366 265.772 250.366 266.979C250.366 268.187 250.106 269.252 249.585 270.175C249.064 271.099 248.309 271.818 247.321 272.333C246.338 272.848 245.149 273.105 243.752 273.105H239.18V270.025H243.131C243.87 270.025 244.48 269.897 244.959 269.643C245.445 269.382 245.806 269.024 246.043 268.569C246.285 268.107 246.407 267.577 246.407 266.979C246.407 266.376 246.285 265.849 246.043 265.399C245.806 264.943 245.445 264.591 244.959 264.343C244.474 264.088 243.859 263.961 243.113 263.961H240.521V279H236.676ZM258.649 279V260.818H270.687V263.988H262.493V268.32H269.888V271.489H262.493V279H258.649ZM277.117 260.818V279H273.273V260.818H277.117ZM280.28 279V260.818H284.124V275.831H291.919V279H280.28ZM294.465 279V260.818H306.716V263.988H298.309V268.32H306.086V271.489H298.309V275.831H306.751V279H294.465ZM319.635 266.047C319.564 265.331 319.26 264.775 318.721 264.378C318.182 263.982 317.451 263.783 316.528 263.783C315.901 263.783 315.371 263.872 314.939 264.05C314.507 264.221 314.176 264.461 313.945 264.769C313.72 265.077 313.607 265.426 313.607 265.816C313.596 266.142 313.664 266.426 313.812 266.669C313.965 266.911 314.176 267.121 314.442 267.299C314.708 267.471 315.016 267.622 315.365 267.752C315.714 267.876 316.087 267.983 316.484 268.071L318.117 268.462C318.91 268.64 319.638 268.876 320.301 269.172C320.964 269.468 321.538 269.832 322.024 270.264C322.509 270.696 322.885 271.205 323.151 271.791C323.423 272.377 323.562 273.049 323.568 273.806C323.562 274.919 323.278 275.884 322.716 276.701C322.16 277.511 321.355 278.142 320.301 278.592C319.254 279.036 317.99 279.257 316.51 279.257C315.043 279.257 313.764 279.033 312.675 278.583C311.592 278.133 310.746 277.467 310.136 276.585C309.532 275.697 309.216 274.6 309.186 273.292H312.906C312.947 273.901 313.122 274.41 313.43 274.819C313.744 275.221 314.161 275.526 314.682 275.733C315.208 275.934 315.803 276.035 316.466 276.035C317.117 276.035 317.682 275.94 318.162 275.751C318.647 275.561 319.023 275.298 319.289 274.961C319.556 274.623 319.689 274.236 319.689 273.798C319.689 273.389 319.567 273.046 319.325 272.768C319.088 272.49 318.739 272.253 318.277 272.058C317.821 271.862 317.262 271.685 316.599 271.525L314.619 271.028C313.087 270.655 311.876 270.072 310.988 269.279C310.101 268.486 309.66 267.417 309.666 266.074C309.66 264.973 309.953 264.011 310.545 263.189C311.142 262.366 311.962 261.724 313.004 261.262C314.045 260.8 315.229 260.57 316.555 260.57C317.904 260.57 319.082 260.8 320.088 261.262C321.1 261.724 321.887 262.366 322.45 263.189C323.012 264.011 323.302 264.964 323.32 266.047H319.635ZM155.243 313V294.818H159.087V302.32H166.891V294.818H170.726V313H166.891V305.489H159.087V313H155.243ZM173.896 313V294.818H186.147V297.988H177.74V302.32H185.517V305.489H177.74V309.831H186.183V313H173.896ZM189.203 313V294.818H196.377C197.75 294.818 198.922 295.064 199.892 295.555C200.869 296.04 201.612 296.73 202.121 297.624C202.635 298.511 202.893 299.556 202.893 300.757C202.893 301.965 202.633 303.004 202.112 303.874C201.591 304.738 200.836 305.401 199.848 305.862C198.865 306.324 197.676 306.555 196.279 306.555H191.476V303.465H195.657C196.391 303.465 197.001 303.365 197.486 303.163C197.972 302.962 198.333 302.66 198.569 302.258C198.812 301.855 198.933 301.355 198.933 300.757C198.933 300.154 198.812 299.645 198.569 299.23C198.333 298.816 197.969 298.502 197.477 298.289C196.992 298.07 196.38 297.961 195.64 297.961H193.047V313H189.203ZM199.022 304.726L203.541 313H199.297L194.876 304.726H199.022ZM205.61 313V294.818H217.861V297.988H209.454V302.32H217.231V305.489H209.454V309.831H217.896V313H205.61Z" fill="black"/>
</svg>
