<svg width="28" height="26" viewBox="0 0 28 26" fill="none" xmlns="http://www.w3.org/2000/svg">
<path d="M14 11.7894C12.3507 11.7894 10.938 11.2117 9.762 10.0561C8.586 8.90057 7.99867 7.51312 8 5.89377C8.00133 4.27442 8.58867 2.88566 9.762 1.72749C10.9353 0.569315 12.348 -0.00649549 14 5.52652e-05C15.652 0.00660602 17.0647 0.583072 18.238 1.72945C19.4113 2.87584 19.9987 4.2646 20 5.89573C20.0013 7.52687 19.414 8.91432 18.238 10.0581C17.062 11.2018 15.6493 11.7777 14 11.7894ZM0 26V22.7652C0 21.9543 0.24 21.1957 0.72 20.4895C1.2 19.7833 1.84667 19.2344 2.66 18.8426C4.548 17.9531 6.43667 17.2862 8.326 16.842C10.2153 16.3979 12.1067 16.1752 14 16.1739C15.8933 16.1726 17.7847 16.3953 19.674 16.842C21.5633 17.2888 23.4513 17.9557 25.338 18.8426C26.1513 19.2331 26.798 19.782 27.278 20.4895C27.758 21.197 27.9987 21.9549 28 22.7633V25.998L0 26ZM2 24.0348H26V22.7652C26 22.3303 25.8573 21.9208 25.572 21.537C25.2867 21.1531 24.8907 20.8295 24.384 20.5662C22.7387 19.7827 21.0413 19.1826 19.292 18.766C17.5427 18.3494 15.7787 18.1398 14 18.1371C12.2213 18.1345 10.4573 18.3435 8.708 18.764C6.95867 19.1846 5.26133 19.7846 3.616 20.5642C3.10933 20.8288 2.71333 21.1524 2.428 21.535C2.14267 21.9189 2 22.329 2 22.7652V24.0348ZM14 9.82619C15.1 9.82619 16.042 9.441 16.826 8.67064C17.61 7.90027 18.0013 6.97464 18 5.89377C17.9987 4.8129 17.6073 3.88727 16.826 3.1169C16.0447 2.34654 15.1027 1.96201 14 1.96332C12.8973 1.96463 11.956 2.34916 11.176 3.1169C10.396 3.88465 10.004 4.81028 10 5.89377C9.996 6.97726 10.388 7.90223 11.176 8.66867C11.964 9.43511 12.9053 9.82226 14 9.82619Z" fill="black"/>
</svg>
